<svg width="16" height="16" viewBox="0 0 16 16" fill="none" xmlns="http://www.w3.org/2000/svg">
<g clip-path="url(#clip0)">
<path d="M12.6666 8.03076C12.298 8.03076 12 8.32947 12 8.69739V14.0308C12 14.3981 11.7013 14.6974 11.3334 14.6974H2C1.63196 14.6974 1.33337 14.3981 1.33337 14.0308V4.69739C1.33337 4.33008 1.63196 4.03076 2 4.03076H7.33337C7.70203 4.03076 8 3.73206 8 3.36414C8 2.99609 7.70203 2.69739 7.33337 2.69739H2C0.897339 2.69739 0 3.59473 0 4.69739V14.0308C0 15.1334 0.897339 16.0308 2 16.0308H11.3334C12.436 16.0308 13.3334 15.1334 13.3334 14.0308V8.69739C13.3334 8.32874 13.0353 8.03076 12.6666 8.03076Z" fill="#9DB94C"/>
<path d="M6.25063 7.42346C6.204 7.47009 6.17263 7.52942 6.15932 7.59338L5.68801 9.95081C5.66603 10.0601 5.7007 10.1727 5.77932 10.2521C5.84267 10.3154 5.928 10.3494 6.0154 10.3494C6.03664 10.3494 6.05873 10.3474 6.08071 10.3428L8.4374 9.87146C8.5027 9.85803 8.56203 9.82678 8.60805 9.78003L13.8827 4.50537L11.526 2.1488L6.25063 7.42346Z" fill="#9DB94C"/>
<path d="M15.512 0.518768C14.8621 -0.131256 13.8047 -0.131256 13.1553 0.518768L12.2327 1.44138L14.5894 3.79807L15.512 2.87534C15.8267 2.56137 16 2.14267 16 1.69736C16 1.25204 15.8267 0.833344 15.512 0.518768Z" fill="#9DB94C"/>
</g>
<defs>
<clipPath id="clip0">
<rect width="16" height="16" fill="white"/>
</clipPath>
</defs>
</svg>
