<svg width="32" height="32" viewBox="0 0 32 32" fill="none" xmlns="http://www.w3.org/2000/svg">
<rect width="32" height="32" fill="url(#paint0_linear)"/>
<path d="M15.1688 6.37465H12.9636V12.2546H10.8558V6.37465H8.63989V4.52354H15.1688V6.37465Z" fill="url(#paint1_linear)"/>
<path d="M19.6069 12.32C19.0232 12.32 18.4935 12.2111 18.0179 11.9933C17.5423 11.7683 17.1315 11.4706 16.7856 11.1004C16.4469 10.7229 16.1839 10.3019 15.9966 9.83731C15.8164 9.36546 15.7263 8.87909 15.7263 8.3782C15.7263 7.8628 15.8236 7.3728 16.0182 6.9082C16.2127 6.44361 16.483 6.02983 16.8289 5.66687C17.182 5.29665 17.5963 5.00628 18.072 4.79576C18.5548 4.58524 19.0808 4.47998 19.6501 4.47998C20.2338 4.47998 20.7635 4.5925 21.2391 4.81754C21.7147 5.03531 22.1219 5.33294 22.4606 5.71043C22.7993 6.08791 23.0587 6.51257 23.2388 6.98442C23.4262 7.44902 23.5199 7.92813 23.5199 8.42176C23.5199 8.92991 23.4226 9.41628 23.228 9.88087C23.0407 10.3455 22.7704 10.7629 22.4173 11.1331C22.0714 11.4961 21.6607 11.7864 21.1851 12.0042C20.7095 12.2147 20.1834 12.32 19.6069 12.32ZM17.8666 8.39998C17.8666 8.74117 17.9278 9.06783 18.0503 9.37998C18.1801 9.69213 18.3746 9.9462 18.634 10.1422C18.9007 10.3382 19.2322 10.4362 19.6285 10.4362C20.0393 10.4362 20.3708 10.3346 20.623 10.1313C20.8824 9.92805 21.0734 9.67035 21.1959 9.3582C21.3184 9.03879 21.3796 8.71213 21.3796 8.3782C21.3796 8.02976 21.3148 7.70309 21.1851 7.3982C21.0554 7.09331 20.8608 6.8465 20.6014 6.65776C20.3419 6.46176 20.014 6.36376 19.6177 6.36376C19.2142 6.36376 18.8827 6.46539 18.6232 6.66865C18.3638 6.86465 18.1728 7.11872 18.0503 7.43087C17.9278 7.73576 17.8666 8.05879 17.8666 8.39998Z" fill="url(#paint2_linear)"/>
<path d="M8.63989 21.2146V13.4835H11.546C12.3834 13.4835 13.0825 13.6577 13.6431 14.0062C14.2109 14.3473 14.6367 14.8119 14.9205 15.3999C15.2115 15.9807 15.357 16.6268 15.357 17.3382C15.357 18.1222 15.1973 18.8045 14.8779 19.3853C14.5657 19.966 14.1221 20.4161 13.5473 20.7355C12.9796 21.0549 12.3125 21.2146 11.546 21.2146H8.63989ZM13.2492 17.3382C13.2492 16.7356 13.0967 16.2529 12.7915 15.8899C12.4934 15.5197 12.0783 15.3346 11.546 15.3346H10.7157V19.3635H11.546C12.0925 19.3635 12.5112 19.1711 12.8021 18.7864C13.1002 18.4016 13.2492 17.9189 13.2492 17.3382Z" fill="url(#paint3_linear)"/>
<path d="M19.6663 21.2799C19.0915 21.2799 18.5699 21.1711 18.1015 20.9533C17.6331 20.7282 17.2286 20.4306 16.888 20.0604C16.5544 19.6829 16.2954 19.2619 16.1109 18.7973C15.9335 18.3254 15.8447 17.8391 15.8447 17.3382C15.8447 16.8228 15.9405 16.3328 16.1322 15.8682C16.3238 15.4036 16.5899 14.9898 16.9305 14.6268C17.2783 14.2566 17.6864 13.9662 18.1547 13.7557C18.6302 13.5452 19.1483 13.4399 19.7089 13.4399C20.2838 13.4399 20.8054 13.5525 21.2738 13.7775C21.7422 13.9953 22.1431 14.2929 22.4767 14.6704C22.8102 15.0479 23.0657 15.4725 23.2431 15.9444C23.4276 16.409 23.5199 16.8881 23.5199 17.3817C23.5199 17.8899 23.4241 18.3762 23.2325 18.8408C23.048 19.3054 22.7818 19.7228 22.4341 20.0931C22.0934 20.456 21.6889 20.7464 21.2205 20.9642C20.7522 21.1747 20.2341 21.2799 19.6663 21.2799ZM17.9525 17.3599C17.9525 17.7011 18.0128 18.0278 18.1334 18.3399C18.2612 18.6521 18.4528 18.9062 18.7083 19.1022C18.9709 19.2982 19.2973 19.3962 19.6876 19.3962C20.0922 19.3962 20.4186 19.2945 20.667 19.0913C20.9225 18.888 21.1105 18.6303 21.2312 18.3182C21.3518 17.9988 21.4122 17.6721 21.4122 17.3382C21.4122 16.9897 21.3483 16.6631 21.2205 16.3582C21.0928 16.0533 20.9012 15.8065 20.6457 15.6177C20.3902 15.4217 20.0673 15.3237 19.677 15.3237C19.2796 15.3237 18.9531 15.4253 18.6976 15.6286C18.4422 15.8246 18.2541 16.0787 18.1334 16.3908C18.0128 16.6957 17.9525 17.0188 17.9525 17.3599Z" fill="url(#paint4_linear)"/>
<path d="M8.63989 27.4546V22.2838H10.0399V26.2165H12.3518V27.4546H8.63989Z" fill="url(#paint5_linear)"/>
<path d="M12.8397 27.4546V22.2838H14.2397V27.4546H12.8397Z" fill="url(#paint6_linear)"/>
<path d="M18.2056 23.9734C18.2056 23.9734 18.1649 23.9491 18.0836 23.9006C18.0022 23.852 17.8945 23.7986 17.7605 23.7404C17.6265 23.6772 17.4805 23.6214 17.3225 23.5729C17.1646 23.5243 17.009 23.5 16.8559 23.5C16.7362 23.5 16.6381 23.5195 16.5615 23.5583C16.4849 23.5971 16.4466 23.6627 16.4466 23.7549C16.4466 23.8909 16.5304 23.988 16.6979 24.0462C16.8702 24.0996 17.1024 24.1749 17.3943 24.272C17.7102 24.3691 17.9831 24.4808 18.2128 24.607C18.4425 24.7332 18.6196 24.8959 18.7441 25.095C18.8685 25.2892 18.9308 25.5489 18.9308 25.8742C18.9308 26.1849 18.8757 26.4471 18.7656 26.6607C18.6555 26.8695 18.5072 27.037 18.3205 27.1633C18.1338 27.2895 17.9256 27.3817 17.6959 27.44C17.4661 27.4934 17.2316 27.5201 16.9923 27.5201C16.7482 27.5201 16.4921 27.4958 16.224 27.4473C15.9608 27.3939 15.7047 27.3235 15.4558 27.2361C15.2069 27.1438 14.9796 27.037 14.7738 26.9156L15.3769 25.6703C15.3769 25.6703 15.4247 25.6994 15.5204 25.7577C15.6162 25.8159 15.743 25.8815 15.901 25.9543C16.0589 26.0271 16.2336 26.0927 16.4251 26.151C16.6213 26.2092 16.8176 26.2383 17.0138 26.2383C17.167 26.2383 17.2723 26.2189 17.3297 26.1801C17.3919 26.1364 17.423 26.0806 17.423 26.0126C17.423 25.9106 17.3704 25.8329 17.2651 25.7795C17.1598 25.7213 17.021 25.6679 16.8487 25.6193C16.6811 25.5659 16.4945 25.5052 16.2887 25.4372C15.8387 25.2819 15.5109 25.0974 15.3051 24.8838C15.0992 24.6653 14.9963 24.3667 14.9963 23.988C14.9963 23.6044 15.0849 23.284 15.262 23.0267C15.4391 22.7693 15.6712 22.5751 15.9584 22.444C16.2504 22.3081 16.5639 22.2401 16.8989 22.2401C17.1478 22.2401 17.3871 22.2717 17.6169 22.3348C17.8514 22.3931 18.0692 22.4659 18.2702 22.5533C18.4761 22.6407 18.6555 22.7232 18.8087 22.8009L18.2056 23.9734Z" fill="url(#paint7_linear)"/>
<path d="M23.5199 23.5219H22.0552V27.4546H20.6552V23.5219H19.1834V22.2838H23.5199V23.5219Z" fill="url(#paint8_linear)"/>
<defs>
<linearGradient id="paint0_linear" x1="2.88" y1="-7.04" x2="38.72" y2="17.76" gradientUnits="userSpaceOnUse">
<stop stop-color="#282E31"/>
<stop offset="1" stop-color="#282E31" stop-opacity="0.83"/>
</linearGradient>
<linearGradient id="paint1_linear" x1="16.0799" y1="4.47998" x2="16.0799" y2="12.32" gradientUnits="userSpaceOnUse">
<stop stop-color="#BCC6CB"/>
<stop offset="1" stop-color="#BCC6CB" stop-opacity="0"/>
</linearGradient>
<linearGradient id="paint2_linear" x1="16.0799" y1="4.47998" x2="16.0799" y2="12.32" gradientUnits="userSpaceOnUse">
<stop stop-color="#BCC6CB"/>
<stop offset="1" stop-color="#BCC6CB" stop-opacity="0"/>
</linearGradient>
<linearGradient id="paint3_linear" x1="16.0799" y1="13.4399" x2="16.0799" y2="21.2799" gradientUnits="userSpaceOnUse">
<stop stop-color="#BCC6CB"/>
<stop offset="1" stop-color="#BCC6CB" stop-opacity="0"/>
</linearGradient>
<linearGradient id="paint4_linear" x1="16.0799" y1="13.4399" x2="16.0799" y2="21.2799" gradientUnits="userSpaceOnUse">
<stop stop-color="#BCC6CB"/>
<stop offset="1" stop-color="#BCC6CB" stop-opacity="0"/>
</linearGradient>
<linearGradient id="paint5_linear" x1="16.0799" y1="22.2401" x2="16.0799" y2="27.5201" gradientUnits="userSpaceOnUse">
<stop stop-color="#BCC6CB"/>
<stop offset="1" stop-color="#BCC6CB" stop-opacity="0"/>
</linearGradient>
<linearGradient id="paint6_linear" x1="16.0799" y1="22.2401" x2="16.0799" y2="27.5201" gradientUnits="userSpaceOnUse">
<stop stop-color="#BCC6CB"/>
<stop offset="1" stop-color="#BCC6CB" stop-opacity="0"/>
</linearGradient>
<linearGradient id="paint7_linear" x1="16.0799" y1="22.2401" x2="16.0799" y2="27.5201" gradientUnits="userSpaceOnUse">
<stop stop-color="#BCC6CB"/>
<stop offset="1" stop-color="#BCC6CB" stop-opacity="0"/>
</linearGradient>
<linearGradient id="paint8_linear" x1="16.0799" y1="22.2401" x2="16.0799" y2="27.5201" gradientUnits="userSpaceOnUse">
<stop stop-color="#BCC6CB"/>
<stop offset="1" stop-color="#BCC6CB" stop-opacity="0"/>
</linearGradient>
</defs>
</svg>
