<svg width="200" height="200" viewBox="0 0 200 200" fill="none" xmlns="http://www.w3.org/2000/svg">
<path d="M94.8055 39.8417H81.0235V76.5917H67.8495V39.8417H54V28.2722H94.8055V39.8417Z" fill="url(#paint0_linear)"/>
<path d="M122.544 77C118.896 77 115.585 76.3194 112.613 74.9583C109.64 73.5518 107.073 71.6917 104.911 69.3778C102.794 67.0185 101.15 64.387 99.9792 61.4833C98.8532 58.5343 98.2902 55.4944 98.2902 52.3639C98.2902 49.1426 98.8982 46.0801 100.114 43.1764C101.33 40.2727 103.019 37.6866 105.181 35.4181C107.388 33.1042 109.978 31.2894 112.95 29.9736C115.968 28.6579 119.256 28 122.814 28C126.462 28 129.773 28.7032 132.745 30.1097C135.718 31.4708 138.262 33.331 140.379 35.6903C142.496 38.0495 144.118 40.7037 145.243 43.6528C146.414 46.5565 147 49.5509 147 52.6361C147 55.812 146.392 58.8518 145.176 61.7556C144.005 64.6593 142.316 67.2681 140.109 69.5819C137.947 71.8505 135.38 73.6653 132.407 75.0264C129.435 76.3421 126.147 77 122.544 77ZM111.667 52.5C111.667 54.6324 112.05 56.6741 112.815 58.625C113.626 60.5759 114.842 62.1639 116.463 63.3889C118.13 64.6139 120.202 65.2264 122.679 65.2264C125.246 65.2264 127.318 64.5912 128.894 63.3208C130.516 62.0505 131.709 60.4398 132.475 58.4889C133.241 56.4926 133.623 54.4509 133.623 52.3639C133.623 50.1861 133.218 48.1444 132.407 46.2389C131.597 44.3333 130.381 42.7907 128.759 41.6111C127.138 40.3861 125.088 39.7736 122.611 39.7736C120.089 39.7736 118.017 40.4088 116.396 41.6792C114.775 42.9042 113.581 44.4921 112.815 46.4431C112.05 48.3486 111.667 50.3676 111.667 52.5Z" fill="url(#paint1_linear)"/>
<path d="M54 132.592V84.2722H72.1633C77.3971 84.2722 81.7661 85.3611 85.2701 87.5389C88.8185 89.6713 91.4798 92.575 93.254 96.25C95.0725 99.8796 95.9818 103.918 95.9818 108.364C95.9818 113.264 94.9838 117.529 92.9878 121.158C91.0362 124.788 88.2641 127.601 84.6713 129.597C81.1229 131.594 76.9536 132.592 72.1633 132.592H54ZM82.8084 108.364C82.8084 104.598 81.8548 101.581 79.9475 99.3125C78.0846 96.9986 75.4899 95.8417 72.1633 95.8417H66.9738V121.022H72.1633C75.5786 121.022 78.1955 119.82 80.0141 117.415C81.877 115.011 82.8084 111.994 82.8084 108.364Z" fill="url(#paint2_linear)"/>
<path d="M122.915 133C119.323 133 116.063 132.319 113.135 130.958C110.208 129.552 107.679 127.692 105.55 125.378C103.466 123.019 101.847 120.387 100.694 117.483C99.5848 114.534 99.0303 111.494 99.0303 108.364C99.0303 105.143 99.6291 102.08 100.827 99.1764C102.024 96.2727 103.688 93.6866 105.817 91.4181C107.99 89.1042 110.54 87.2894 113.468 85.9736C116.44 84.6579 119.677 84 123.181 84C126.774 84 130.034 84.7032 132.962 86.1097C135.889 87.4708 138.395 89.331 140.48 91.6903C142.565 94.0495 144.161 96.7037 145.27 99.6528C146.423 102.556 147 105.551 147 108.636C147 111.812 146.401 114.852 145.204 117.756C144.05 120.659 142.387 123.268 140.214 125.582C138.085 127.85 135.556 129.665 132.629 131.026C129.702 132.342 126.464 133 122.915 133ZM112.204 108.5C112.204 110.632 112.581 112.674 113.335 114.625C114.133 116.576 115.331 118.164 116.927 119.389C118.569 120.614 120.609 121.226 123.048 121.226C125.577 121.226 127.617 120.591 129.169 119.321C130.766 118.05 131.942 116.44 132.696 114.489C133.45 112.493 133.827 110.451 133.827 108.364C133.827 106.186 133.427 104.144 132.629 102.239C131.831 100.333 130.633 98.7907 129.036 97.6111C127.44 96.3861 125.421 95.7736 122.982 95.7736C120.498 95.7736 118.458 96.4088 116.861 97.6792C115.264 98.9042 114.089 100.492 113.335 102.443C112.581 104.349 112.204 106.368 112.204 108.5Z" fill="url(#paint3_linear)"/>
<path d="M54 171.59V139.273H62.7502V163.852H77.1992V171.59H54Z" fill="url(#paint4_linear)"/>
<path d="M80.2488 171.59V139.273H88.9989V171.59H80.2488Z" fill="url(#paint5_linear)"/>
<path d="M113.786 149.833C113.786 149.833 113.532 149.681 113.023 149.378C112.514 149.074 111.841 148.741 111.004 148.377C110.166 147.982 109.254 147.633 108.266 147.33C107.279 147.026 106.307 146.874 105.35 146.874C104.602 146.874 103.989 146.996 103.51 147.239C103.031 147.481 102.792 147.891 102.792 148.468C102.792 149.317 103.316 149.924 104.363 150.288C105.44 150.622 106.89 151.092 108.715 151.699C110.69 152.306 112.395 153.004 113.831 153.793C115.267 154.582 116.373 155.599 117.151 156.843C117.929 158.057 118.318 159.68 118.318 161.713C118.318 163.655 117.974 165.294 117.286 166.629C116.598 167.934 115.67 168.981 114.504 169.77C113.337 170.559 112.036 171.135 110.6 171.499C109.164 171.833 107.698 172 106.202 172C104.677 172 103.076 171.848 101.401 171.545C99.7556 171.211 98.1552 170.771 96.5996 170.225C95.044 169.648 93.623 168.981 92.3367 168.222L96.106 160.439C96.106 160.439 96.4051 160.621 97.0034 160.985C97.6017 161.349 98.3945 161.759 99.3817 162.214C100.369 162.669 101.461 163.079 102.657 163.443C103.884 163.807 105.11 163.989 106.337 163.989C107.294 163.989 107.952 163.868 108.311 163.625C108.7 163.352 108.895 163.003 108.895 162.578C108.895 161.941 108.566 161.455 107.907 161.121C107.249 160.757 106.382 160.423 105.305 160.12C104.258 159.786 103.091 159.407 101.805 158.982C98.9928 158.011 96.9436 156.858 95.6573 155.523C94.3709 154.157 93.7277 152.291 93.7277 149.924C93.7277 147.527 94.2812 145.524 95.388 143.916C96.4949 142.308 97.9458 141.094 99.7407 140.274C101.565 139.425 103.525 139 105.619 139C107.175 139 108.67 139.197 110.106 139.592C111.572 139.956 112.933 140.411 114.19 140.957C115.476 141.503 116.598 142.019 117.555 142.505L113.786 149.833Z" fill="url(#paint6_linear)"/>
<path d="M147 147.011H137.846V171.59H129.096V147.011H119.897V139.273H147V147.011Z" fill="url(#paint7_linear)"/>
<defs>
<linearGradient id="paint0_linear" x1="100.5" y1="28" x2="100.5" y2="77" gradientUnits="userSpaceOnUse">
<stop stop-color="#BCC6CB"/>
<stop offset="1" stop-color="#BCC6CB" stop-opacity="0"/>
</linearGradient>
<linearGradient id="paint1_linear" x1="100.5" y1="28" x2="100.5" y2="77" gradientUnits="userSpaceOnUse">
<stop stop-color="#BCC6CB"/>
<stop offset="1" stop-color="#BCC6CB" stop-opacity="0"/>
</linearGradient>
<linearGradient id="paint2_linear" x1="100.5" y1="84" x2="100.5" y2="133" gradientUnits="userSpaceOnUse">
<stop stop-color="#BCC6CB"/>
<stop offset="1" stop-color="#BCC6CB" stop-opacity="0"/>
</linearGradient>
<linearGradient id="paint3_linear" x1="100.5" y1="84" x2="100.5" y2="133" gradientUnits="userSpaceOnUse">
<stop stop-color="#BCC6CB"/>
<stop offset="1" stop-color="#BCC6CB" stop-opacity="0"/>
</linearGradient>
<linearGradient id="paint4_linear" x1="100.5" y1="139" x2="100.5" y2="172" gradientUnits="userSpaceOnUse">
<stop stop-color="#BCC6CB"/>
<stop offset="1" stop-color="#BCC6CB" stop-opacity="0"/>
</linearGradient>
<linearGradient id="paint5_linear" x1="100.5" y1="139" x2="100.5" y2="172" gradientUnits="userSpaceOnUse">
<stop stop-color="#BCC6CB"/>
<stop offset="1" stop-color="#BCC6CB" stop-opacity="0"/>
</linearGradient>
<linearGradient id="paint6_linear" x1="100.5" y1="139" x2="100.5" y2="172" gradientUnits="userSpaceOnUse">
<stop stop-color="#BCC6CB"/>
<stop offset="1" stop-color="#BCC6CB" stop-opacity="0"/>
</linearGradient>
<linearGradient id="paint7_linear" x1="100.5" y1="139" x2="100.5" y2="172" gradientUnits="userSpaceOnUse">
<stop stop-color="#BCC6CB"/>
<stop offset="1" stop-color="#BCC6CB" stop-opacity="0"/>
</linearGradient>
</defs>
</svg>
